<svg width="11" height="11" viewBox="0 0 11 11" fill="none" xmlns="http://www.w3.org/2000/svg">
<path d="M1.78466 9.98485L8.52821 3.2413L8.52821 9.13361C8.52821 9.60451 8.91459 9.99089 9.38549 9.99089C9.49731 9.99101 9.60806 9.96907 9.71139 9.92633C9.81472 9.88359 9.9086 9.82089 9.98767 9.74182C10.0667 9.66275 10.1294 9.56887 10.1722 9.46554C10.2149 9.36221 10.2369 9.25147 10.2367 9.13965L10.2367 1.18262C10.2369 1.0708 10.2149 0.960057 10.1722 0.856727C10.1294 0.753398 10.0667 0.659512 9.98767 0.580443C9.9086 0.501375 9.81472 0.438678 9.71139 0.395939C9.60806 0.353201 9.49731 0.33126 9.38549 0.331375L1.42847 0.331375C1.31668 0.331375 1.20599 0.353394 1.10271 0.396173C0.999433 0.438952 0.905593 0.501654 0.826547 0.5807C0.747502 0.659745 0.684799 0.753585 0.64202 0.856863C0.599241 0.960141 0.577222 1.07083 0.577222 1.18262C0.577222 1.29441 0.599241 1.4051 0.642021 1.50838C0.684799 1.61165 0.747502 1.7055 0.826547 1.78454C0.905592 1.86359 0.999433 1.92629 1.10271 1.96907C1.20599 2.01185 1.31668 2.03387 1.42847 2.03387L7.32077 2.03387L0.577223 8.77741C0.245177 9.10946 0.245177 9.65281 0.577223 9.98485C0.909269 10.3169 1.45262 10.3169 1.78466 9.98485Z" fill="#15375C"/>
</svg>
